<svg xmlns="http://www.w3.org/2000/svg" width="48" height="48"><path fill="#757575" fill-opacity=".05" stroke="#757575" stroke-linecap="round" stroke-linejoin="round" stroke-width="1.2" d="M35.413 4.5H11.706C8.837 4.5 6.5 6.995 6.5 10.058V46.5h29.794c2.869 0 5.206-2.495 5.206-5.558v-30.22"/><g id="g2522"><g fill="#FE8C19"><path d="M2.75 2.75v16.5h16.5V2.75H16.5V5.5h-2.75V2.75h-5.5V5.5H5.5V2.75zm1.375 4.125h13.75v11H4.125zm0 0" transform="matrix(1.3 0 0 1.3 9.8 11.7)"/><path d="M9.625 12.375V16.5H11v-1.375h4.125V16.5H16.5v-4.125h-1.375v1.375H11v-1.375zM5.5 8.25v4.125h1.375V11h5.5v1.375h1.375V8.25h-1.375v1.375h-5.5V8.25zm0 0" transform="matrix(1.3 0 0 1.3 9.8 11.7)"/></g></g></svg>