<svg xmlns="http://www.w3.org/2000/svg" width="48" height="48"><path fill="#757575" fill-opacity=".05" stroke="#757575" stroke-linecap="round" stroke-linejoin="round" stroke-width="1.2" d="M35.413 4.5H11.706C8.837 4.5 6.5 6.995 6.5 10.058V46.5h29.794c2.869 0 5.206-2.495 5.206-5.558v-30.22"/><g id="g2522"><path fill="#198CFE" d="M2.75 4.125c-.762 0-1.375.613-1.375 1.375v11c0 .762.613 1.375 1.375 1.375h16.5c.762 0 1.375-.613 1.375-1.375v-11c0-.762-.613-1.375-1.375-1.375zm0 1.375h.402l5.008 5.008L3.023 16.5H2.75zm2.348 0h11.804L11 11.402zm13.75 0h.402v11h-.27l-5.136-5.992zM9.14 11.48l1.863 1.868 1.867-1.868 4.3 5.02H4.837zm0 0" transform="matrix(1.3 0 0 1.3 9.8 11.7)"/></g></svg>