<svg xmlns="http://www.w3.org/2000/svg" width="48" height="48"><path fill="#757575" fill-opacity=".05" stroke="#757575" stroke-linecap="round" stroke-linejoin="round" stroke-width="1.2" d="M35.413 4.5H11.706C8.837 4.5 6.5 6.995 6.5 10.058V46.5h29.794c2.869 0 5.206-2.495 5.206-5.558v-30.22"/><g id="g2522"><path fill="#FE8C19" d="M4.125 2.75c-.762 0-1.375.613-1.375 1.375v13.75c0 .762.613 1.375 1.375 1.375h13.75c.762 0 1.375-.613 1.375-1.375V4.125c0-.762-.613-1.375-1.375-1.375zm0 1.375h13.75v13.75H4.125zm8.25 1.375v4.125H16.5A4.126 4.126 0 0 0 12.375 5.5M11 6.875a4.126 4.126 0 0 0 0 8.25A4.126 4.126 0 0 0 15.125 11H11zm0 0" transform="matrix(1.3 0 0 1.3 9.8 11.7)"/></g></svg>