<svg xmlns="http://www.w3.org/2000/svg" width="48" height="48"><path fill="#757575" fill-opacity=".05" stroke="#757575" stroke-linecap="round" stroke-linejoin="round" stroke-width="1.2" d="M35.413 4.5H11.706C8.837 4.5 6.5 6.995 6.5 10.058V46.5h29.794c2.869 0 5.206-2.495 5.206-5.558v-30.22"/><g id="g2522"><path fill="#1952FE" d="M14.438.688L11 4.813h1.375v1.375H5.5v11H4.125l3.438 4.125L11 17.188H9.625v-1.375H16.5v-11h1.375zm0 2.062l.687.688v11h-5.5v-1.376h4.125V3.438zM6.875 7.563h5.5v1.375H8.25v9.624l-.688.688-.687-.688zm2.75 2.75h2.75v1.374h-2.75zm0 0" transform="matrix(1.3 0 0 1.3 9.8 11.7)"/></g></svg>