<svg xmlns="http://www.w3.org/2000/svg" width="48" height="48"><path fill="#757575" fill-opacity=".05" stroke="#757575" stroke-linecap="round" stroke-linejoin="round" stroke-width="1.2" d="M35.413 4.5H11.706C8.837 4.5 6.5 6.995 6.5 10.058V46.5h29.794c2.869 0 5.206-2.495 5.206-5.558v-30.22"/><g id="g2522"><path fill="#FE8C19" d="M11 2.75a4.116 4.116 0 0 0-4.125 4.125V8.25H8.25V6.875c0-2 1.035-2.75 2.75-2.75s2.75.75 2.75 2.75V11H4.125v8.25h13.75V11h-2.75V6.875A4.116 4.116 0 0 0 11 2.75m-5.5 9.625h11v5.5h-11zm0 0" transform="matrix(1.3 0 0 1.3 9.8 11.7)"/></g></svg>