<svg xmlns="http://www.w3.org/2000/svg" width="48" height="48"><path fill="#757575" fill-opacity=".05" stroke="#757575" stroke-linecap="round" stroke-linejoin="round" stroke-width="1.2" d="M35.413 4.5H11.706C8.837 4.5 6.5 6.995 6.5 10.058V46.5h29.794c2.869 0 5.206-2.495 5.206-5.558v-30.22"/><g id="g2522"><path fill="#198CFE" d="M6.875 2.75A4.116 4.116 0 0 0 2.75 6.875V8.25l6.875 11V11h5.5a4.116 4.116 0 0 0 4.125-4.125 4.116 4.116 0 0 0-4.125-4.125zm8.25 1.375a2.749 2.749 0 1 1 0 5.5 2.749 2.749 0 1 1 0-5.5" transform="matrix(1.3 0 0 1.3 9.8 11.7)"/></g></svg>