<svg xmlns="http://www.w3.org/2000/svg" width="48" height="48"><path fill="#757575" fill-opacity=".05" stroke="#757575" stroke-linecap="round" stroke-linejoin="round" stroke-width="1.2" d="M35.413 4.5H11.706C8.837 4.5 6.5 6.995 6.5 10.058V46.5h29.794c2.869 0 5.206-2.495 5.206-5.558v-30.22"/><g id="g2522"><path fill="#19C5FE" d="M2.75 2.75v1.375H11V2.75zm0 4.125V8.25h16.5V6.875zm0 4.125v1.375h6.875V11zM11 11v8.25h8.25V11zm1.375 1.375h5.5v5.5h-5.5zM2.75 13.75v1.375h6.875V13.75zm0 4.125v1.375h6.875v-1.375zm0 0" transform="matrix(1.3 0 0 1.3 9.8 11.7)"/></g></svg>