<svg xmlns="http://www.w3.org/2000/svg" width="48" height="48"><path fill="#757575" fill-opacity=".05" stroke="#757575" stroke-linecap="round" stroke-linejoin="round" stroke-width="1.2" d="M35.413 4.5H11.706C8.837 4.5 6.5 6.995 6.5 10.058V46.5h29.794c2.869 0 5.206-2.495 5.206-5.558v-30.22"/><g id="g2522"><path fill="#19C5FE" d="M2.75 4.125v13.75h16.5V4.125zM5.07 5.5h11.86L11 11.43zm-.945.945l4.426 4.426-4.426 3.781zm13.75 0v8.207l-4.426-3.78zm-8.379 5.371l1.031 1.032.473.515.473-.515 1.03-1.032 5.372 4.598v.086H4.125v-.086zm0 0" transform="matrix(1.3 0 0 1.3 9.8 11.7)"/></g></svg>