<svg xmlns="http://www.w3.org/2000/svg" width="48" height="48"><path fill="#757575" fill-opacity=".05" stroke="#757575" stroke-linecap="round" stroke-linejoin="round" stroke-width="1.2" d="M35.413 4.5H11.706C8.837 4.5 6.5 6.995 6.5 10.058V46.5h29.794c2.869 0 5.206-2.495 5.206-5.558v-30.22"/><g id="g2522"><path fill="#198CFE" d="M17.188 2.75a2.06 2.06 0 0 0-2.063 2.063 2.06 2.06 0 0 0 2.063 2.062 2.06 2.06 0 0 0 2.062-2.063 2.06 2.06 0 0 0-2.063-2.062m-6.875 1.375a7.564 7.564 0 0 0 0 15.125 7.564 7.564 0 0 0 7.563-7.563 7.542 7.542 0 0 0-1.766-4.843A2.744 2.744 0 0 1 13.75 11a2.749 2.749 0 1 1 1.45-5.082 7.569 7.569 0 0 0-4.887-1.793" transform="matrix(1.3 0 0 1.3 9.8 11.7)"/></g></svg>