<svg xmlns="http://www.w3.org/2000/svg" width="48" height="48"><path fill="#757575" fill-opacity=".05" stroke="#757575" stroke-linecap="round" stroke-linejoin="round" stroke-width="1.2" d="M35.413 4.5H11.706C8.837 4.5 6.5 6.995 6.5 10.058V46.5h29.794c2.869 0 5.206-2.495 5.206-5.558v-30.22"/><g id="g2522"><path fill="#7F8080" d="M6.875 2.75v4.125H2.75V8.25h4.125v5.5H2.75v1.375h4.125v4.125H8.25v-4.125h5.5v4.125h1.375v-4.125h4.125V13.75h-4.125v-5.5h4.125V6.875h-4.125V2.75H13.75v4.125h-5.5V2.75zm1.375 5.5h5.5v5.5h-5.5zm0 0" transform="matrix(1.3 0 0 1.3 9.8 11.7)"/></g></svg>