<svg xmlns="http://www.w3.org/2000/svg" width="48" height="48"><path fill="#757575" fill-opacity=".05" stroke="#757575" stroke-linecap="round" stroke-linejoin="round" stroke-width="1.2" d="M35.413 4.5H11.706C8.837 4.5 6.5 6.995 6.5 10.058V46.5h29.794c2.869 0 5.206-2.495 5.206-5.558v-30.22"/><g id="g2522"><path fill="#19C5FE" fill-rule="evenodd" d="M11 2.75A8.252 8.252 0 0 0 2.75 11 8.252 8.252 0 0 0 11 19.25a8.221 8.221 0 0 0 5.828-2.422l-.969-.969A6.871 6.871 0 0 1 4.125 11a6.871 6.871 0 1 1 11.734-4.86l.97-.968A8.221 8.221 0 0 0 11 2.75zm0 0" transform="matrix(1.3 0 0 1.3 9.8 11.7)"/></g></svg>