<svg xmlns="http://www.w3.org/2000/svg" width="48" height="48"><path fill="#757575" fill-opacity=".05" stroke="#757575" stroke-linecap="round" stroke-linejoin="round" stroke-width="1.2" d="M35.413 4.5H11.706C8.837 4.5 6.5 6.995 6.5 10.058V46.5h29.794c2.869 0 5.206-2.495 5.206-5.558v-30.22"/><g id="g2522" transform="matrix(1.3 0 0 1.3 9.8 11.7)"><defs><linearGradient id="a" x1="13.945" x2="7.97" y1="13.942" y2="1.991" gradientTransform="scale(1.375)" gradientUnits="userSpaceOnUse"><stop offset="0" stop-color="#FE1952"/><stop offset="1" stop-color="#FE1952"/></linearGradient><linearGradient id="b" x1="7.97" x2="1.994" y1="1.991" y2="13.942" gradientTransform="scale(1.375)" gradientUnits="userSpaceOnUse"><stop offset="0" stop-color="#198CFE"/><stop offset="1" stop-color="#19C5FE"/></linearGradient><linearGradient id="c" x1="13.945" x2="1.994" y1="0" y2="0" gradientTransform="scale(1.375)" gradientUnits="userSpaceOnUse"><stop offset="0" stop-color="#8CFF19"/><stop offset="1" stop-color="#8CFF19"/></linearGradient></defs><g fill-rule="evenodd"><path fill="url(#a)" d="M10.957 2.738l1.207 13.68 7.012 2.75zm0 0"/><path fill="url(#b)" d="M10.957 2.738L2.742 19.172l8.953-8.082zm0 0"/><path fill="url(#c)" d="M7.727 14.672l-4.985 4.496h16.434zm-4.97 4.469l-.03.027h.015zm0 0"/></g></g></svg>