<svg xmlns="http://www.w3.org/2000/svg" xmlns:xlink="http://www.w3.org/1999/xlink" width="16" height="16" version="1.1" viewBox="0 0 16 16"><g id="surface1"><path style="stroke:none;fill-rule:nonzero;fill:#fe8c19;fill-opacity:1" d="M 2 2 L 2 14 L 14 14 L 14 2 L 12 2 L 12 4 L 10 4 L 10 2 L 6 2 L 6 4 L 4 4 L 4 2 Z M 3 5 L 13 5 L 13 13 L 3 13 Z M 3 5"/><path style="stroke:none;fill-rule:nonzero;fill:#fe8c19;fill-opacity:1" d="M 7 9 L 7 12 L 8 12 L 8 11 L 11 11 L 11 12 L 12 12 L 12 9 L 11 9 L 11 10 L 8 10 L 8 9 Z M 4 6 L 4 9 L 5 9 L 5 8 L 9 8 L 9 9 L 10 9 L 10 6 L 9 6 L 9 7 L 5 7 L 5 6 Z M 4 6"/></g></svg>