<svg xmlns="http://www.w3.org/2000/svg" xmlns:svg="http://www.w3.org/2000/svg" xmlns:xlink="http://www.w3.org/1999/xlink" id="svg40" width="64" height="64" version="1.1"><metadata id="metadata46"/><linearGradient id="a"><stop id="stop2" offset="0" stop-color="#0c6adc"/><stop id="stop4" offset="1" stop-color="#0eecef"/></linearGradient><linearGradient id="b" x1="-54.435" x2="-19.412" y1="14.268" y2="39.284" gradientUnits="userSpaceOnUse" xlink:href="#a"/><linearGradient id="c" x1="-54.435" x2="-14.409" y1="11.618" y2="44.287" gradientUnits="userSpaceOnUse" xlink:href="#a"/><linearGradient id="f" x1="-54.435" x2="-14.409" y1="11.618" y2="44.287" gradientTransform="matrix(1.0033 0 0 1.00331 .117 1.545)" gradientUnits="userSpaceOnUse" xlink:href="#a"/><linearGradient id="e" x1="-54.435" x2="-14.409" y1="11.618" y2="44.287" gradientTransform="matrix(1.0033 0 0 1.00331 .119 -.157)" gradientUnits="userSpaceOnUse" xlink:href="#a"/><linearGradient id="d" x1="-54.435" x2="-16.41" y1="19.271" y2="45.288" gradientTransform="matrix(1.0033 0 0 1.00331 .119 -.157)" gradientUnits="userSpaceOnUse"><stop id="stop11" offset="0" stop-color="#0c6adc" stop-opacity=".2"/><stop id="stop13" offset="1" stop-color="#0eecef" stop-opacity=".2"/></linearGradient><g id="g30" stroke="url(#b)" stroke-linecap="round" stroke-linejoin="round" stroke-width=".962" transform="matrix(1.35024 0 0 1.35193 80.504 -1.726)"><path id="path16" fill="none" stroke="#aaa" stroke-width=".74" d="M-19.259 16.44v-1.48c0-.74-.74-1.48-1.481-1.48h-17.75"/><g id="g22" stroke="url(#c)" stroke-width=".888" clip-rule="evenodd" transform="translate(0 -2.74)"><path id="path18" fill="url(#d)" fill-rule="evenodd" stroke="url(#e)" d="M-38.432 19.178l-4.016-5.02-13.1-.155c-2.223 0-2.963 1.48-2.963 2.959V44.33c0 1.48.74 2.959 2.962 2.959h39.253c2.222 0 2.962-1.48 2.962-2.96V22.14c0-1.479-.74-2.958-2.962-2.958z"/><path id="path20" fill="none" stroke="url(#f)" d="M-16.296 14.742V8.825h-11.85l-2.222 2.22h-22.959"/></g><g id="g28" fill="none" stroke-linecap="butt" stroke-linejoin="miter" stroke-width=".74"><path id="path24" stroke="#0c6adc" d="M-26.665 8.303h6.666"/><path id="path26" stroke="#aaa" d="M-20 8.303h2.222"/></g></g><g id="g38" filter="url(#filter7554)" transform="translate(-57 -604.224) scale(1.58748)"><path style="marker:none" id="path32" fill="none" d="M48 398h16v16H48z" color="#bebebe" opacity=".515" overflow="visible"/><path id="path34" fill="#f5f5f5" d="M50 402c-.5 0-1 .5-1 1v4c0 .5.5 1 1 1h1v-2h10v2h1c.5 0 1-.5 1-1v-4c0-.5-.5-1-1-1zm2 1.006c.554 0 1 .446 1 1s-.446 1-1 1-1-.446-1-1 .446-1 1-1zM52 399v2h8v-2z"/><path id="path36" fill="#f5f5f5" d="M52 407v5h8v-5z"/></g></svg>