<svg xmlns="http://www.w3.org/2000/svg" xmlns:svg="http://www.w3.org/2000/svg" xmlns:xlink="http://www.w3.org/1999/xlink" id="svg42" width="64" height="64" version="1.1"><metadata id="metadata48"/><linearGradient id="a"><stop id="stop2" offset="0" stop-color="#0c6adc"/><stop id="stop4" offset="1" stop-color="#0eecef"/></linearGradient><linearGradient id="b" x1="-54.435" x2="-19.412" y1="14.268" y2="39.284" gradientUnits="userSpaceOnUse" xlink:href="#a"/><linearGradient id="c" x1="-54.435" x2="-14.409" y1="11.618" y2="44.287" gradientUnits="userSpaceOnUse" xlink:href="#a"/><linearGradient id="f" x1="-54.435" x2="-14.409" y1="11.618" y2="44.287" gradientTransform="matrix(1.0033 0 0 1.00331 .117 1.545)" gradientUnits="userSpaceOnUse" xlink:href="#a"/><linearGradient id="e" x1="-54.435" x2="-14.409" y1="11.618" y2="44.287" gradientTransform="matrix(1.0033 0 0 1.00331 .119 -.157)" gradientUnits="userSpaceOnUse" xlink:href="#a"/><linearGradient id="d" x1="-54.435" x2="-16.41" y1="19.271" y2="45.288" gradientTransform="matrix(1.0033 0 0 1.00331 .119 -.157)" gradientUnits="userSpaceOnUse"><stop id="stop11" offset="0" stop-color="#0c6adc" stop-opacity=".2"/><stop id="stop13" offset="1" stop-color="#0eecef" stop-opacity=".2"/></linearGradient><g id="g30" stroke="url(#b)" stroke-linecap="round" stroke-linejoin="round" stroke-width=".962" transform="matrix(1.35024 0 0 1.35193 80.504 -1.726)"><path id="path16" fill="none" stroke="#aaa" stroke-width=".74" d="M-19.259 16.44v-1.48c0-.74-.74-1.48-1.481-1.48h-17.75"/><g id="g22" stroke="url(#c)" stroke-width=".888" clip-rule="evenodd" transform="translate(0 -2.74)"><path id="path18" fill="url(#d)" fill-rule="evenodd" stroke="url(#e)" d="M-38.432 19.178l-4.016-5.02-13.1-.155c-2.223 0-2.963 1.48-2.963 2.959V44.33c0 1.48.74 2.959 2.962 2.959h39.253c2.222 0 2.962-1.48 2.962-2.96V22.14c0-1.479-.74-2.958-2.962-2.958z"/><path id="path20" fill="none" stroke="url(#f)" d="M-16.296 14.742V8.825h-11.85l-2.222 2.22h-22.959"/></g><g id="g28" fill="none" stroke-linecap="butt" stroke-linejoin="miter" stroke-width=".74"><path id="path24" stroke="#0c6adc" d="M-26.665 8.303h6.666"/><path id="path26" stroke="#aaa" d="M-20 8.303h2.222"/></g></g><path id="path32" fill="none" d="M19.2 27.6h25.398v25.398H19.2z"/><g id="g40" fill="#f5f5f5"><path id="path34" d="M25.548 30.78a4.782 4.782 0 0 0-4.758 4.758v9.528a4.773 4.773 0 0 0 4.758 4.758H38.25a4.782 4.782 0 0 0 4.758-4.758v-9.528a4.782 4.782 0 0 0-4.758-4.752zm0 3.18H38.25c.906 0 1.59.672 1.59 1.578v9.528a1.554 1.554 0 0 1-1.59 1.584H25.548a1.542 1.542 0 0 1-1.584-1.584v-9.528c0-.9.672-1.578 1.584-1.578z"/><path id="path36" d="M25.548 35.544v6.348l2.382-2.382 2.382 2.382 3.966-3.966 3.972 3.966v-6.348z" opacity=".5"/><path id="path38" d="M31.902 38.718l6.348 6.348H25.548z"/></g></svg>