<svg xmlns="http://www.w3.org/2000/svg" xmlns:svg="http://www.w3.org/2000/svg" id="svg23" width="64" height="64" version="1.1"><metadata id="metadata29"/><linearGradient id="a" x1="138.436" x2="155.261" y1="22.94" y2="22.94" gradientUnits="userSpaceOnUse"><stop id="stop2" offset="0" stop-color="#ffad10"/><stop id="stop4" offset="1" stop-color="#fd7c12"/></linearGradient><g id="g19" transform="matrix(3.5906,0,0,3.5906,-493.389,-49.442)" style="fill:none;stroke:#bf2bd1;stroke-width:1.39300001;stroke-linecap:round;stroke-linejoin:round;stroke-opacity:1"><g id="g15" transform="translate(-0.10789266,0.0174558)" style="stroke:#bf2bd1;stroke-width:1.39300001;stroke-opacity:1"><path style="fill:none;stroke:#bf2bd1;stroke-width:5.00170565;stroke-opacity:1" id="path851" d="m 9.2261845,19.57004 c -2.1837625,3.961866 -3.4352247,8.544339 -3.4352247,13.419001 0,14.987164 11.6263632,27.130573 25.7086962,27.130573 10.208076,0 18.865012,-6.200966 23.127054,-15.245687 a 17.708839,17.708839 0 0 1 -3.357211,2.585232" transform="matrix(0.27850499,0,0,0.27850499,137.51919,13.752388)"/><path style="fill:none;stroke:#bf2bd1;stroke-width:5.00170565;stroke-opacity:1" id="path7" d="M 59.021605,18.777446 C 58.63382,17.48483 58.63382,16.192214 58.63382,16.192214 c 0,-0.646308 -0.129262,-1.547549 -0.258523,-2.193857 -0.258523,-3.619324 -3.748587,-6.5887506 -8.13989,-6.5887506 -0.517047,0 -1.163355,0 -1.680401,0.1292616 C 47.26239,7.4096064 45.969774,6.7632984 45.969774,6.7632984 43.646656,5.7292056 43.646656,7.538868 43.646656,7.538868 c 0,0.3841942 -0.129262,0.9012406 -0.129262,1.418287 C 39.880387,6.9387342 35.792031,5.8727972 31.632508,5.8584672 25.293061,5.9932593 19.909703,8.299485 16.82763,10.900299" transform="matrix(0.27850499,0,0,0.27850499,137.51919,13.752388)"/><path id="path9" d="m 151.834,26.97 a 7.17,7.17 0 0 1 -3.635,0.971 c -3.058,0 -5.505,-1.727 -5.505,-3.886 0,-2.158 2.483,-3.886 5.505,-3.886 1.152,0 2.231,0.252 3.095,0.684 1.367,0.576 1.907,0.324 1.907,0.324 a 1.37,1.37 0 0 0 0.612,-0.288 c 0.251,-0.216 0.431,-0.54 0.431,-0.9 0,-0.215 -0.036,-0.395 -0.108,-0.54 -0.036,-0.071 -0.072,-0.18 -0.108,-0.251 -0.036,-0.072 -0.036,-0.144 -0.072,-0.216" style="stroke:#bf2bd1;stroke-opacity:1"/><path id="path13" d="m 148.394,22.209 c 0,0 0.503,0.503 0.755,0.863 0,0 0.468,0.576 0.972,0.252 0,0 0.467,-0.288 -0.144,-1.007 -0.684,-0.18 -1.583,-0.108 -1.583,-0.108 z m -5.65,0.971 c 0,0 1.152,-0.072 1.764,0.504 0,0 0.611,0.791 1.259,0.396 0,0 0.396,-0.252 -0.18,-1.116 0,0 -0.252,-0.36 -0.72,-0.468 -0.036,0 -1.007,-0.215 -0.288,-1.187" style="stroke:#bf2bd1;stroke-opacity:1"/></g><path id="path17" d="m 151.98516,18.511883 -1.05554,-0.485064" style="fill:none;stroke:#bf2bd1;stroke-width:1.11399996;stroke-linecap:round;stroke-linejoin:round;stroke-opacity:1"/></g><path id="path21" d="m 37.352056,36.468124 a 5.443,5.443 0 0 1 6.06,4.631 5.443,5.443 0 0 1 -4.52,6.144 5.443,5.443 0 0 1 -6.224,-4.41 5.443,5.443 0 0 1 4.296,-6.302" style="fill:#fdc712;fill-opacity:1"/></svg>