<svg xmlns="http://www.w3.org/2000/svg" xmlns:svg="http://www.w3.org/2000/svg" xmlns:xlink="http://www.w3.org/1999/xlink" id="svg18" width="64" height="64" version="1.1"><metadata id="metadata22"/><defs id="defs5"><linearGradient id="d" x1="-44.602" x2="-15.602" y1="21.669" y2="21.669" gradientTransform="matrix(0.93955,0,0,0.93947,-2.666,2.16)" gradientUnits="userSpaceOnUse" xlink:href="#a"/><linearGradient id="c" x1="-44.602" x2="-15.602" y1="21.669" y2="21.669" gradientTransform="matrix(1.82441,0,0,1.82422,89.65,-8.39)" gradientUnits="userSpaceOnUse" xlink:href="#a"/><linearGradient id="b" x1="-44.602" x2="-15.602" y1="21.669" y2="21.669" gradientUnits="userSpaceOnUse" xlink:href="#a"/><linearGradient id="linearGradient877" x1="3.877" x2="26.937" y1="-14.434" y2="-14.434" gradientTransform="translate(-31.174799,29.020945)" gradientUnits="userSpaceOnUse" xlink:href="#a"/></defs><linearGradient id="a" x1="-44.602" x2="-15.602" y1="21.669" y2="21.669" gradientUnits="userSpaceOnUse"><stop id="stop7" offset="0" stop-color="#0070ff" style="stop-color:#001fff;stop-opacity:1"/><stop id="stop9" offset="1" stop-color="#00e9ff" style="stop-color:#00a3ff;stop-opacity:1"/></linearGradient><path style="fill:none;stroke:#0097ff;stroke-width:5;stroke-linecap:round;stroke-linejoin:miter;stroke-miterlimit:4;stroke-dasharray:none;stroke-opacity:1" id="path833" d="M 32.3306,59.914349 V 20.079531"/><path style="fill:none;stroke:#0097ff;stroke-width:5;stroke-linecap:round;stroke-linejoin:miter;stroke-miterlimit:4;stroke-dasharray:none;stroke-opacity:1" id="path893" d="M 40.330498,30.212389 H 45.34808"/><path style="fill:none;stroke:#0097ff;stroke-width:5;stroke-linecap:round;stroke-linejoin:miter;stroke-miterlimit:4;stroke-dasharray:none;stroke-opacity:1" id="path835" d="m 19.482838,30.212389 h 4.84766"/><path style="opacity:1;fill:none;fill-opacity:1;stroke:#0097ff;stroke-width:5.00000286;stroke-linecap:round;stroke-linejoin:round;stroke-miterlimit:4;stroke-dasharray:none;stroke-dashoffset:0;stroke-opacity:1;paint-order:normal" id="path837" d="m -30.568956,18.603524 a 5.6798916,5.6845198 0 0 1 -6.87152,-4.054054 5.6798916,5.6845198 0 0 1 3.954946,-6.9327499 5.6798916,5.6845198 0 0 1 6.981356,3.8615209 5.6798916,5.6845198 0 0 1 -3.761063,7.03999" transform="matrix(-0.73130961,-0.68204564,0.68082157,-0.73244931,0,0)"/><path style="fill:none;stroke:#0097ff;stroke-width:5;stroke-linecap:round;stroke-linejoin:miter;stroke-miterlimit:4;stroke-dasharray:none;stroke-opacity:1" id="path861" d="M 15.295147,53.358811 H 49.535769"/><path style="fill:none;stroke:#0097ff;stroke-width:5;stroke-linecap:round;stroke-linejoin:bevel;stroke-miterlimit:4;stroke-dasharray:none;stroke-opacity:1" id="path831" d="m 10.13808,49.28534 c 0,0 3.131803,4.211658 5.54813,5.138668 3.417202,1.310988 7.679057,-1.310989 11.096259,0 2.416327,0.927008 2.932716,5.138667 5.54813,5.138667 2.615413,0 3.131803,-4.211659 5.54813,-5.138667 3.417202,-1.310989 7.679057,1.310988 11.09626,0 2.416327,-0.92701 5.548129,-5.138668 5.548129,-5.138668"/></svg>