<svg xmlns="http://www.w3.org/2000/svg" xmlns:svg="http://www.w3.org/2000/svg" xmlns:xlink="http://www.w3.org/1999/xlink" id="svg23" width="64" height="64" version="1.1"><metadata id="metadata27"/><defs id="defs10"><linearGradient id="b" x1="-44.602" x2="-15.602" y1="21.669" y2="21.669" gradientUnits="userSpaceOnUse"><stop id="stop2" offset="0" stop-color="#0070ff"/><stop id="stop4" offset="1" stop-color="#23b4da"/></linearGradient><linearGradient id="c" x1="-44.602" x2="-15.602" y1="21.669" y2="21.669" gradientUnits="userSpaceOnUse" xlink:href="#a"/><linearGradient id="d" x1="-22.314" x2="-34.993" y1="23.578" y2="23.578" gradientTransform="matrix(1.11556 0 0 2.57795 3.137 -39.847)" gradientUnits="userSpaceOnUse" xlink:href="#b"/><linearGradient id="e" x1="14.092" x2="42.643" y1="19.727" y2="19.727" gradientTransform="scale(-1 1)" gradientUnits="userSpaceOnUse" xlink:href="#b"/></defs><linearGradient id="a" x1="-44.602" x2="-15.602" y1="21.669" y2="21.669" gradientUnits="userSpaceOnUse"><stop id="stop12" offset="0" stop-color="#0070ff"/><stop id="stop14" offset="1" stop-color="#00e9ff"/></linearGradient><path style="opacity:1;fill:none;fill-opacity:1;stroke:#248cd9;stroke-width:4.99999952;stroke-linecap:round;stroke-linejoin:round;stroke-miterlimit:4;stroke-dasharray:none;stroke-dashoffset:0;stroke-opacity:1;paint-order:normal" id="path837" d="M -4.860876,47.112688 A 16.453312,16.453312 0 0 1 -12.474174,26.587757 16.453312,16.453312 0 0 1 7.0404533,16.667353 16.453312,16.453312 0 0 1 19.136652,34.913368 16.453312,16.453312 0 0 1 2.400765,49.025248" transform="rotate(-43.665525)"/><path style="fill:none;stroke:#248cd9;stroke-width:4.99999952;stroke-linecap:round;stroke-linejoin:round;stroke-miterlimit:4;stroke-dasharray:none;stroke-opacity:1" id="path841" d="m 36.260763,34.028314 6.649292,6.966474"/><rect style="opacity:1;fill:none;fill-opacity:1;stroke:#248cd9;stroke-width:5;stroke-linecap:round;stroke-linejoin:round;stroke-miterlimit:4;stroke-dasharray:none;stroke-dashoffset:0;stroke-opacity:1;paint-order:normal" id="rect843" width="5.778" height="23.113" x="-.153" y="59.282" ry="2.889" transform="rotate(-43.665525)"/><path id="path845" d="m 3.514911,24.578071 a 8.0275745,8.0275745 0 0 1 5.9491343,3.449672" transform="rotate(-43.665525)" style="opacity:1;fill:none;fill-opacity:1;stroke:#24ccd9;stroke-width:4.99999952;stroke-linecap:round;stroke-linejoin:round;stroke-miterlimit:4;stroke-dasharray:none;stroke-dashoffset:0;stroke-opacity:1;paint-order:normal"/></svg>