<svg xmlns="http://www.w3.org/2000/svg" width="64" height="64"><path fill="#757575" fill-opacity=".05" stroke="#757575" stroke-linecap="round" stroke-linejoin="round" stroke-width="1.2" d="M48.63 3.5H14.086C9.906 3.5 6.5 7.005 6.5 11.308V62.5h43.414c4.18 0 7.586-3.505 7.586-7.808V12.241"/><g id="g2522"><path fill="#19C5FE" d="M2.75 2.75v1.375H11V2.75zm0 4.125V8.25h16.5V6.875zm0 4.125v1.375h6.875V11zM11 11v8.25h8.25V11zm1.375 1.375h5.5v5.5h-5.5zM2.75 13.75v1.375h6.875V13.75zm0 4.125v1.375h6.875v-1.375zm0 0" transform="scale(1.5 1.5) translate(11 12)"/></g></svg>