<svg xmlns="http://www.w3.org/2000/svg" width="64" height="64"><path fill="#757575" fill-opacity=".05" stroke="#757575" stroke-linecap="round" stroke-linejoin="round" stroke-width="1.2" d="M48.63 3.5H14.086C9.906 3.5 6.5 7.005 6.5 11.308V62.5h43.414c4.18 0 7.586-3.505 7.586-7.808V12.241"/><g id="g2522"><path fill="#198CFE" d="M2.75 4.125c-.762 0-1.375.613-1.375 1.375v11c0 .762.613 1.375 1.375 1.375h16.5c.762 0 1.375-.613 1.375-1.375v-11c0-.762-.613-1.375-1.375-1.375zm0 1.375h.402l5.008 5.008L3.023 16.5H2.75zm2.348 0h11.804L11 11.402zm13.75 0h.402v11h-.27l-5.136-5.992zM9.14 11.48l1.863 1.868 1.867-1.868 4.3 5.02H4.837zm0 0" transform="scale(1.5 1.5) translate(11 12)"/></g></svg>