<svg xmlns="http://www.w3.org/2000/svg" width="64" height="64"><path fill="#757575" fill-opacity=".05" stroke="#757575" stroke-linecap="round" stroke-linejoin="round" stroke-width="1.2" d="M48.63 3.5H14.086C9.906 3.5 6.5 7.005 6.5 11.308V62.5h43.414c4.18 0 7.586-3.505 7.586-7.808V12.241"/><g id="g2522"><path fill="#7F8080" d="M4.125 2.75c-.762 0-1.375.613-1.375 1.375v13.75c0 .762.613 1.375 1.375 1.375h13.75c.762 0 1.375-.613 1.375-1.375V4.125c0-.762-.613-1.375-1.375-1.375zm0 1.375h13.75v13.75H4.125zm8.25 1.375v4.125H16.5A4.126 4.126 0 0 0 12.375 5.5M11 6.875a4.126 4.126 0 0 0 0 8.25A4.126 4.126 0 0 0 15.125 11H11zm0 0" transform="scale(1.5 1.5) translate(11 12)"/></g></svg>