<svg xmlns="http://www.w3.org/2000/svg" width="64" height="64"><path fill="#757575" fill-opacity=".05" stroke="#757575" stroke-linecap="round" stroke-linejoin="round" stroke-width="1.2" d="M48.63 3.5H14.086C9.906 3.5 6.5 7.005 6.5 11.308V62.5h43.414c4.18 0 7.586-3.505 7.586-7.808V12.241"/><g id="g2522"><path fill="#FF19C5" d="M12.5 2.75L8.172 18.89l1.332.36 4.324-16.14zM7.266 5.5l-4.07 4.324-.446.48.445.473 4.047 4.348.985-.953-3.606-3.867L8.25 6.457zm7.468 0l-.984.957 3.629 3.844-3.606 3.867.985.957 4.047-4.348.445-.476-.445-.477zm0 0" transform="scale(1.5 1.5) translate(11 12)"/></g></svg>