<svg xmlns="http://www.w3.org/2000/svg" width="64" height="64"><path fill="#757575" fill-opacity=".05" stroke="#757575" stroke-linecap="round" stroke-linejoin="round" stroke-width="1.2" d="M48.63 3.5H14.086C9.906 3.5 6.5 7.005 6.5 11.308V62.5h43.414c4.18 0 7.586-3.505 7.586-7.808V12.241"/><g id="g2522"><path fill="#198CFE" d="M2.75 2.75v16.5h16.5V2.75zm4.125 1.375h8.25v5.5h-8.25zM4.125 5.5H5.5v1.375H4.125zm12.375 0h1.375v1.375H16.5zM4.125 10.313H5.5v1.374H4.125zm12.375 0h1.375v1.374H16.5zm-9.625 2.062h8.25v5.5h-8.25zm-2.75 2.75H5.5V16.5H4.125zm12.375 0h1.375V16.5H16.5zm0 0" transform="scale(1.5 1.5) translate(11 12)"/></g></svg>