<svg xmlns="http://www.w3.org/2000/svg" xmlns:osb="http://www.openswatchbook.org/uri/2009/osb" xmlns:svg="http://www.w3.org/2000/svg" xmlns:xlink="http://www.w3.org/1999/xlink" id="svg6621" width="32" height="32" version="1.1" viewBox="0 0 32 32"><defs id="defs6623"><linearGradient id="selected_bg_color" osb:paint="solid"><stop style="stop-color:#5a74ca;stop-opacity:1" id="stop4138" offset="0"/></linearGradient><linearGradient id="linearGradient4140" x1="16" x2="16" y1="1020.362" y2="1052.362" gradientUnits="userSpaceOnUse" xlink:href="#selected_bg_color"/><linearGradient id="linearGradient4155" x1="2" x2="2" y1="1020.362" y2="1052.362" gradientTransform="matrix(1.3333334,0,0,1.032258,-0.6666669,-33.431046)" gradientUnits="userSpaceOnUse" xlink:href="#selected_bg_color"/></defs><metadata id="metadata6626"/><g id="layer1" transform="translate(0,-1020.3622)"><rect style="display:inline;opacity:1;fill:#fcfdfd;fill-opacity:1;stroke:url(#linearGradient4140);stroke-width:.99999994;stroke-linecap:round;stroke-linejoin:miter;stroke-miterlimit:4;stroke-dasharray:none;stroke-dashoffset:0;stroke-opacity:1" id="rect4160" width="31" height="31" x=".5" y="1020.862" rx="1.5" ry="1.5"/><path style="display:inline;opacity:1;fill:url(#linearGradient4155);fill-opacity:1;stroke:none;stroke-width:1;stroke-linecap:round;stroke-linejoin:miter;stroke-miterlimit:4;stroke-dasharray:none;stroke-dashoffset:0;stroke-opacity:1" id="rect4162-5" d="m 3,1020.3622 1,0 0,32 -1,0 c -1.6620002,0 -3.0000002,-0.7025 -3.0000002,-1.5751 l 0,-28.8498 c 0,-0.8726 1.338,-1.5751 3.0000002,-1.5751 z"/><path style="display:inline;opacity:1;fill:none;fill-opacity:1;stroke:#000;stroke-width:1;stroke-linecap:round;stroke-linejoin:miter;stroke-miterlimit:4;stroke-dasharray:none;stroke-dashoffset:0;stroke-opacity:.08095236" id="rect4162-5-7" d="m 2.75,1020.8622 0.75,0 0,31 -0.75,0 c -1.2465002,0 -2.2500002,-0.6805 -2.2500002,-1.5259 l 0,-27.9482 c 0,-0.8454 1.0035,-1.5259 2.2500002,-1.5259 z"/></g></svg>