<svg xmlns="http://www.w3.org/2000/svg" xmlns:svg="http://www.w3.org/2000/svg" xmlns:xlink="http://www.w3.org/1999/xlink" id="svg35" width="48" height="48" version="1.1"><metadata id="metadata41"/><linearGradient id="a"><stop id="stop2" offset="0" stop-color="#0c6adc"/><stop id="stop4" offset="1" stop-color="#0eecef"/></linearGradient><linearGradient id="b" x1="-54.435" x2="-19.412" y1="14.268" y2="39.284" gradientUnits="userSpaceOnUse" xlink:href="#a"/><linearGradient id="c" x1="-54.435" x2="-14.409" y1="11.618" y2="44.287" gradientUnits="userSpaceOnUse" xlink:href="#a"/><linearGradient id="e" x1="-54.437" x2="-14.411" y1="13.314" y2="45.983" gradientUnits="userSpaceOnUse" xlink:href="#a"/><linearGradient id="d" x1="-54.435" x2="-16.41" y1="19.271" y2="45.288" gradientUnits="userSpaceOnUse"><stop id="stop10" offset="0" stop-color="#0c6adc" stop-opacity=".2"/><stop id="stop12" offset="1" stop-color="#0eecef" stop-opacity=".2"/></linearGradient><g id="g23" fill="#dfffff" fill-opacity=".078" stroke="url(#b)" stroke-linecap="round" stroke-linejoin="round" stroke-width="1.401" transform="translate(59.9 -1.758) scale(.99935)"><path id="path15" fill="none" stroke="#aaa" stroke-width="1.001" d="M-19.412 17.27v-2.002l-1-1h-20.014"/><g id="g21" stroke="url(#c)" stroke-width="1.201" clip-rule="evenodd" transform="translate(0 -2.001)"><path id="path17" fill="url(#d)" fill-opacity="1" fill-rule="evenodd" d="M-38.424 19.271l-4.003-5.003-12.98.021c-2.03-.021-3.03.98-3.03 2.98 0 0 .013 17.915 0 27.018 0 2.002 1 3.002 2.869 3.002h39.158c2.001 0 3.002-1 3.002-3.002V22.273c.017-1.87-.946-2.955-3.002-3.002z"/><path id="path19" fill="none" stroke="url(#e)" d="M-16.41 15.268V9.264h-12.008l-2.001 2.002h-23.015"/></g></g><g id="g31" fill="#f5f5f5"><path id="path25" d="M15.18 34.845a1.288 1.288 0 0 1 .368-.856l2.636-2.576c.28-.299.957-.358 1.228-.193.101 0 1.38.768 1.569 1.058.75 1.15-.414 2.222-1.426 1.877l-.428-.253-1.95 1.914c-.773.644-2.057.115-1.992-.966zm14.14-14.462a4.315 4.315 0 0 1 1.426-.097l-1.656 2.806a1.187 1.187 0 0 0 .433 1.642l1.062.617a1.205 1.205 0 0 0 1.656-.428l1.652-2.806a4.241 4.241 0 0 1 .607 1.274 4.223 4.223 0 0 1-3.036 5.152 4.315 4.315 0 0 1-1.426.101l-.98 1.357-4.149-.027s1.85-3.138 1.978-3.16a4.241 4.241 0 0 1-.607-1.284 4.223 4.223 0 0 1 3.036-5.152zm-9.76.731a4.388 4.388 0 0 0-.792.267c-.028.759.101 1.757-.193 2.015s-1.265.046-2.015-.037a4.416 4.416 0 0 0-.382.91c.584.484 1.39 1.022 1.408 1.408.018.391-.764.98-1.288 1.523.12.313.299.598.487.874.741-.152 1.661-.456 1.978-.23.322.23.322 1.228.414 1.978.309.092.626.129.953.156.34-.676.69-1.61 1.062-1.711.387-.11 1.173.552 1.822.948a4.384 4.384 0 0 0 .722-.644c-.308-.7-.874-1.574-.722-1.942.156-.368 1.187-.57 1.9-.837.004-.092.041-.175.041-.267 0-.23-.046-.46-.078-.685-.736-.193-1.785-.29-1.978-.644-.184-.35.299-1.288.533-2.015a4.48 4.48 0 0 0-.795-.57c-.608.455-1.32 1.21-1.712 1.14-.381-.073-.805-.998-1.214-1.637-.046.01-.101-.01-.152 0zm.758 2.282a2.054 2.054 0 1 1 0 4.107 2.054 2.054 0 0 1 0-4.107z"/><path id="path27" d="M18.828 31.193H30.98l.01 7.378c0 .598-.576 1.14-1.21 1.14h-9.73a1.214 1.214 0 0 1-1.214-1.214z"/><path id="path29" d="M34.606 34.817a1.288 1.288 0 0 0-.368-.855l-2.631-2.576c-.286-.3-.957-.359-1.233-.193-.097 0-1.38.768-1.564 1.058-.755 1.15.414 2.221 1.426 1.876l.423-.257 1.95 1.913c.778.644 2.061.115 1.997-.966z"/></g><path id="path33" fill="none" d="M15.18 20.24h19.472v19.472H15.18z"/></svg>