<svg xmlns="http://www.w3.org/2000/svg" xmlns:svg="http://www.w3.org/2000/svg" xmlns:xlink="http://www.w3.org/1999/xlink" id="svg31" width="48" height="48" version="1.1"><metadata id="metadata37"/><linearGradient id="a"><stop id="stop2" offset="0" stop-color="#0c6adc"/><stop id="stop4" offset="1" stop-color="#0eecef"/></linearGradient><linearGradient id="b" x1="-54.435" x2="-19.412" y1="14.268" y2="39.284" gradientUnits="userSpaceOnUse" xlink:href="#a"/><linearGradient id="c" x1="-54.435" x2="-14.409" y1="11.618" y2="44.287" gradientUnits="userSpaceOnUse" xlink:href="#a"/><linearGradient id="e" x1="-54.437" x2="-14.411" y1="13.314" y2="45.983" gradientUnits="userSpaceOnUse" xlink:href="#a"/><linearGradient id="d" x1="-54.435" x2="-16.41" y1="19.271" y2="45.288" gradientUnits="userSpaceOnUse"><stop id="stop10" offset="0" stop-color="#0c6adc" stop-opacity=".2"/><stop id="stop12" offset="1" stop-color="#0eecef" stop-opacity=".2"/></linearGradient><g id="g23" fill="#dfffff" fill-opacity=".078" stroke="url(#b)" stroke-linecap="round" stroke-linejoin="round" stroke-width="1.401" transform="translate(59.9 -1.758) scale(.99935)"><path id="path15" fill="none" stroke="#aaa" stroke-width="1.001" d="M-19.412 17.27v-2.002l-1-1h-20.014"/><g id="g21" stroke="url(#c)" stroke-width="1.201" clip-rule="evenodd" transform="translate(0 -2.001)"><path id="path17" fill="url(#d)" fill-opacity="1" fill-rule="evenodd" d="M-38.424 19.271l-4.003-5.003-12.98.021c-2.03-.021-3.03.98-3.03 2.98 0 0 .013 17.915 0 27.018 0 2.002 1 3.002 2.869 3.002h39.158c2.001 0 3.002-1 3.002-3.002V22.273c.017-1.87-.946-2.955-3.002-3.002z"/><path id="path19" fill="none" stroke="url(#e)" d="M-16.41 15.268V9.264h-12.008l-2.001 2.002h-23.015"/></g></g><g id="g29" fill="#f5f5f5" fill-opacity=".557"><path id="path25" fill="none" d="M15.18 20.24h19.467v19.472H15.18z"/><path id="path27" fill-opacity="1" d="M17.618 20.24a2.429 2.429 0 0 0-2.438 2.438v14.6a2.436 2.436 0 1 0 4.871 0v-4.866h9.734v4.866a2.433 2.433 0 1 0 4.867 0v-14.6a2.429 2.429 0 0 0-2.434-2.438zm1.826 2.438h1.215c.34 0 .611.267.611.603v1.826h1.822c.34 0 .612.276.612.612v1.214a.607.607 0 0 1-.612.607H21.27v1.826a.607.607 0 0 1-.611.612h-1.215a.607.607 0 0 1-.607-.612V27.54h-1.826a.607.607 0 0 1-.612-.607v-1.214c0-.34.276-.612.612-.612h1.826V23.28a.598.598 0 0 1 .607-.603zm9.734 0h1.214c.34 0 .612.267.612.603V24.5a.607.607 0 0 1-.612.607h-1.214a.607.607 0 0 1-.607-.607v-1.22c0-.335.271-.607.607-.607zm-2.438 2.429h1.219c.34 0 .612.276.612.612v1.214a.607.607 0 0 1-.612.607h-1.215a.607.607 0 0 1-.607-.607v-1.214c0-.34.272-.612.607-.612zm4.871 0h1.22a.61.61 0 0 1 .606.612v1.214a.607.607 0 0 1-.607.607h-1.219a.607.607 0 0 1-.607-.607v-1.214c0-.34.271-.612.607-.612zm-2.433 2.438h1.214c.34 0 .612.271.612.607v1.214a.607.607 0 0 1-.612.612h-1.214a.607.607 0 0 1-.607-.612v-1.214a.61.61 0 0 1 .607-.612z"/></g></svg>