<svg xmlns="http://www.w3.org/2000/svg" xmlns:svg="http://www.w3.org/2000/svg" xmlns:xlink="http://www.w3.org/1999/xlink" id="svg33" width="48" height="48" version="1.1"><metadata id="metadata39"/><linearGradient id="a"><stop id="stop2" offset="0" stop-color="#0c6adc"/><stop id="stop4" offset="1" stop-color="#0eecef"/></linearGradient><linearGradient id="b" x1="-54.435" x2="-19.412" y1="14.268" y2="39.284" gradientUnits="userSpaceOnUse" xlink:href="#a"/><linearGradient id="c" x1="-54.435" x2="-14.409" y1="11.618" y2="44.287" gradientUnits="userSpaceOnUse" xlink:href="#a"/><linearGradient id="e" x1="-54.437" x2="-14.411" y1="13.314" y2="45.983" gradientUnits="userSpaceOnUse" xlink:href="#a"/><linearGradient id="d" x1="-54.435" x2="-16.41" y1="19.271" y2="45.288" gradientUnits="userSpaceOnUse"><stop id="stop10" offset="0" stop-color="#0c6adc" stop-opacity=".2"/><stop id="stop12" offset="1" stop-color="#0eecef" stop-opacity=".2"/></linearGradient><g id="g23" fill="#dfffff" fill-opacity=".078" stroke="url(#b)" stroke-linecap="round" stroke-linejoin="round" stroke-width="1.401" transform="translate(59.9 -1.758) scale(.99935)"><path id="path15" fill="none" stroke="#aaa" stroke-width="1.001" d="M-19.412 17.27v-2.002l-1-1h-20.014"/><g id="g21" stroke="url(#c)" stroke-width="1.201" clip-rule="evenodd" transform="translate(0 -2.001)"><path id="path17" fill="url(#d)" fill-opacity="1" fill-rule="evenodd" d="M-38.424 19.271l-4.003-5.003-12.98.021c-2.03-.021-3.03.98-3.03 2.98 0 0 .013 17.915 0 27.018 0 2.002 1 3.002 2.869 3.002h39.158c2.001 0 3.002-1 3.002-3.002V22.273c.017-1.87-.946-2.955-3.002-3.002z"/><path id="path19" fill="none" stroke="url(#e)" d="M-16.41 15.268V9.264h-12.008l-2.001 2.002h-23.015"/></g></g><g id="g31" filter="url(#filter7554)" transform="translate(-43.24 -464.158) scale(1.21707)"><path style="marker:none" id="path25" fill="none" d="M48 398h16v16H48z" color="#bebebe" opacity=".515" overflow="visible"/><path id="path27" fill="#f5f5f5" d="M50 402c-.5 0-1 .5-1 1v4c0 .5.5 1 1 1h1v-2h10v2h1c.5 0 1-.5 1-1v-4c0-.5-.5-1-1-1zm2 1.006c.554 0 1 .446 1 1s-.446 1-1 1-1-.446-1-1 .446-1 1-1zM52 399v2h8v-2z"/><path id="path29" fill="#f5f5f5" d="M52 407v5h8v-5z"/></g></svg>