<svg xmlns="http://www.w3.org/2000/svg" xmlns:svg="http://www.w3.org/2000/svg" xmlns:xlink="http://www.w3.org/1999/xlink" id="svg33" width="48" height="48" version="1.1"><metadata id="metadata39"/><linearGradient id="a"><stop id="stop2" offset="0" stop-color="#0c6adc"/><stop id="stop4" offset="1" stop-color="#0eecef"/></linearGradient><linearGradient id="b" x1="-54.435" x2="-19.412" y1="14.268" y2="39.284" gradientUnits="userSpaceOnUse" xlink:href="#a"/><linearGradient id="c" x1="-54.435" x2="-14.409" y1="11.618" y2="44.287" gradientUnits="userSpaceOnUse" xlink:href="#a"/><linearGradient id="e" x1="-54.437" x2="-14.411" y1="13.314" y2="45.983" gradientUnits="userSpaceOnUse" xlink:href="#a"/><linearGradient id="d" x1="-54.435" x2="-16.41" y1="19.271" y2="45.288" gradientUnits="userSpaceOnUse"><stop id="stop10" offset="0" stop-color="#0c6adc" stop-opacity=".2"/><stop id="stop12" offset="1" stop-color="#0eecef" stop-opacity=".2"/></linearGradient><g id="g23" fill="#dfffff" fill-opacity=".078" stroke="url(#b)" stroke-linecap="round" stroke-linejoin="round" stroke-width="1.401" transform="translate(59.9 -1.758) scale(.99935)"><path id="path15" fill="none" stroke="#aaa" stroke-width="1.001" d="M-19.412 17.27v-2.002l-1-1h-20.014"/><g id="g21" stroke="url(#c)" stroke-width="1.201" clip-rule="evenodd" transform="translate(0 -2.001)"><path id="path17" fill="url(#d)" fill-opacity="1" fill-rule="evenodd" d="M-38.424 19.271l-4.003-5.003-12.98.021c-2.03-.021-3.03.98-3.03 2.98 0 0 .013 17.915 0 27.018 0 2.002 1 3.002 2.869 3.002h39.158c2.001 0 3.002-1 3.002-3.002V22.273c.017-1.87-.946-2.955-3.002-3.002z"/><path id="path19" fill="none" stroke="url(#e)" d="M-16.41 15.268V9.264h-12.008l-2.001 2.002h-23.015"/></g></g><path id="path25" fill="none" d="M15.18 20.24h19.472v19.472H15.18z"/><g id="g31" fill="#f5f5f5"><path id="path27" d="M23.092 21.454a1.84 1.84 0 0 0-1.83 1.827v2.433c0 .998.827 1.83 1.83 1.83h3.648a1.84 1.84 0 0 0 1.826-1.83v-2.438a1.83 1.83 0 0 0-1.826-1.822zm0 1.224h3.648c.35 0 .612.253.612.598v2.438a.598.598 0 0 1-.612.612h-3.648a.598.598 0 0 1-.607-.612v-2.438c0-.345.262-.598.607-.598zm-4.867 9.729a1.84 1.84 0 0 0-1.826 1.83v2.439a1.84 1.84 0 0 0 1.826 1.821h3.648a1.83 1.83 0 0 0 1.822-1.821v-2.438a1.84 1.84 0 0 0-1.822-1.831zm0 1.224h3.648a.598.598 0 0 1 .612.607v2.438a.592.592 0 0 1-.612.598h-3.648a.589.589 0 0 1-.612-.598v-2.438a.598.598 0 0 1 .612-.607zm9.738-1.224a1.85 1.85 0 0 0-1.83 1.83v2.439a1.84 1.84 0 0 0 1.83 1.821h3.648a1.83 1.83 0 0 0 1.822-1.821v-2.438a1.84 1.84 0 0 0-1.822-1.831zm0 1.224h3.648a.598.598 0 0 1 .612.607v2.438c0 .345-.262.598-.612.598h-3.648a.589.589 0 0 1-.611-.598v-2.438a.598.598 0 0 1 .611-.607zM16.4 28.759v2.438h17.034V28.76z"/><path id="path29" d="M23.695 26.933v3.05h2.438v-3.05zm-4.858 3.05v3.036h2.424v-3.036zm9.729 0v3.036h2.438v-3.036z"/></g></svg>