<svg xmlns="http://www.w3.org/2000/svg" width="32" height="32"><path fill="#757575" fill-opacity=".05" stroke="#757575" stroke-linecap="round" stroke-linejoin="round" stroke-width="1.2" d="M23.5 3.5H7.921C6.036 3.5 4.5 5.104 4.5 7.073V30.5h19.579c1.885 0 3.421-1.604 3.421-3.573V7.5"/><g id="g2522"><path fill="#19C5FE" d="M2.75 2.75v1.375H11V2.75zm0 4.125V8.25h16.5V6.875zm0 4.125v1.375h6.875V11zM11 11v8.25h8.25V11zm1.375 1.375h5.5v5.5h-5.5zM2.75 13.75v1.375h6.875V13.75zm0 4.125v1.375h6.875v-1.375zm0 0" transform="scale(1 1) translate(5 6.3)"/></g></svg>