<svg xmlns="http://www.w3.org/2000/svg" width="32" height="32"><path fill="#757575" fill-opacity=".05" stroke="#757575" stroke-linecap="round" stroke-linejoin="round" stroke-width="1.2" d="M23.5 3.5H7.921C6.036 3.5 4.5 5.104 4.5 7.073V30.5h19.579c1.885 0 3.421-1.604 3.421-3.573V7.5"/><g id="g2522"><path fill="#7F8080" d="M11 2.75a4.116 4.116 0 0 0-4.125 4.125V11h-2.75v8.25h13.75V11h-2.75V6.875A4.116 4.116 0 0 0 11 2.75m0 1.375c1.715 0 2.75.75 2.75 2.75V11h-5.5V6.875c0-2 1.035-2.75 2.75-2.75" transform="scale(1 1) translate(5 6.3)"/></g></svg>