<svg xmlns="http://www.w3.org/2000/svg" width="32" height="32"><path fill="#757575" fill-opacity=".05" stroke="#757575" stroke-linecap="round" stroke-linejoin="round" stroke-width="1.2" d="M23.5 3.5H7.921C6.036 3.5 4.5 5.104 4.5 7.073V30.5h19.579c1.885 0 3.421-1.604 3.421-3.573V7.5"/><g id="g2522"><path fill="#198CFE" d="M6.875 2.75A4.116 4.116 0 0 0 2.75 6.875V8.25l6.875 11V11h5.5a4.116 4.116 0 0 0 4.125-4.125 4.116 4.116 0 0 0-4.125-4.125zm8.25 1.375a2.749 2.749 0 1 1 0 5.5 2.749 2.749 0 1 1 0-5.5" transform="scale(1 1) translate(5 6.3)"/></g></svg>