<svg xmlns="http://www.w3.org/2000/svg" width="32" height="32"><path fill="#757575" fill-opacity=".05" stroke="#757575" stroke-linecap="round" stroke-linejoin="round" stroke-width="1.2" d="M23.5 3.5H7.921C6.036 3.5 4.5 5.104 4.5 7.073V30.5h19.579c1.885 0 3.421-1.604 3.421-3.573V7.5"/><g id="g2522"><path fill="#7F8080" d="M19.246 5.023l-9.625.008-3.36 9.2-2.136-3.708H2.75v1.375h.59l2.93 5.079 4.156-10.579h8.824zm-5.5 2.75a4.116 4.116 0 0 0-4.125 4.125 4.116 4.116 0 0 0 4.125 4.125c1.063 0 2.02-.41 2.75-1.066v1.066h1.375v-8.25h-1.375V8.84a4.098 4.098 0 0 0-2.75-1.067m0 1.375a2.744 2.744 0 0 1 2.75 2.75 2.744 2.744 0 0 1-2.75 2.75 2.744 2.744 0 0 1-2.75-2.75 2.744 2.744 0 0 1 2.75-2.75" transform="scale(1 1) translate(5 6.3)"/></g></svg>