<svg xmlns="http://www.w3.org/2000/svg" width="32" height="32"><path fill="#757575" fill-opacity=".05" stroke="#757575" stroke-linecap="round" stroke-linejoin="round" stroke-width="1.2" d="M23.5 3.5H7.921C6.036 3.5 4.5 5.104 4.5 7.073V30.5h19.579c1.885 0 3.421-1.604 3.421-3.573V7.5"/><g id="g2522"><g fill="#19C5FE"><path d="M11 2.75A8.247 8.247 0 0 0 2.75 11 8.247 8.247 0 0 0 11 19.25 8.247 8.247 0 0 0 19.25 11 8.247 8.247 0 0 0 11 2.75m0 1.375a6.875 6.875 0 1 1 0 13.75 6.875 6.875 0 0 1 0-13.75" transform="scale(1 1) translate(5 6.3)"/><path d="M10.313 8.25h1.374v8.25h-1.374zm0-2.75h1.374v1.375h-1.374zm0 0" transform="scale(1 1) translate(5 6.3)"/></g></g></svg>