<svg xmlns="http://www.w3.org/2000/svg" width="32" height="32"><path fill="#757575" fill-opacity=".05" stroke="#757575" stroke-linecap="round" stroke-linejoin="round" stroke-width="1.2" d="M23.5 3.5H7.921C6.036 3.5 4.5 5.104 4.5 7.073V30.5h19.579c1.885 0 3.421-1.604 3.421-3.573V7.5"/><g id="g2522"><path fill="#7F8080" d="M2.75 2.75v16.5h16.5V2.75H16.5v1.375h-2.75V2.75h-5.5v1.375H5.5V2.75zm1.375 4.125h13.75v11H4.125zM5.5 8.25V11h2.75V8.25zm4.125 0V11h2.75V8.25zm4.125 0V11h2.75V8.25zm-4.125 4.125v2.75h2.75v-2.75zm4.125 0v2.75h2.75v-2.75zm0 0" transform="scale(1 1) translate(5 6.3)"/></g></svg>