<svg xmlns="http://www.w3.org/2000/svg" xmlns:svg="http://www.w3.org/2000/svg" id="svg10" width="22" height="22" version="1.1"><metadata id="metadata16"/><path id="path2" fill="none" d="M21.665 21.665H.5V.5h21.165z"/><g id="g8" fill="#f5f5f5"><path id="path4" d="M5.79 1.815A3.99 3.99 0 0 0 1.825 5.79v10.58c0 2.175 1.79 3.97 3.965 3.97h10.585c2.18 0 3.965-1.8 3.965-3.97V5.79a3.99 3.99 0 0 0-3.965-3.975zm0 2.65h10.585c.76 0 1.32.57 1.32 1.325v10.58a1.295 1.295 0 0 1-1.32 1.325H5.79a1.295 1.295 0 0 1-1.315-1.325V5.79c0-.75.56-1.325 1.315-1.325z"/><path id="path6" d="M8.435 5.79v6.055l5.96 3.44 1.32-2.3-4.63-2.67V5.79zM7.115.495h7.935V1.82H7.115zm0 19.845h7.935v1.325H7.115z"/></g></svg>