<svg xmlns="http://www.w3.org/2000/svg" xmlns:svg="http://www.w3.org/2000/svg" id="svg4" width="22" height="22" version="1.1"><metadata id="metadata10"/><path id="path2" fill="#f5f5f5" d="M5.79 1.825A1.32 1.32 0 0 0 4.47 3.15v1.325H1.82A1.32 1.32 0 0 0 .5 5.795V16.38c0 .73.59 1.32 1.325 1.32H4.47v1.325a1.322 1.322 0 1 0 2.645 0V17.7h2.65v1.325a1.32 1.32 0 1 0 2.64 0V17.7h2.65v1.325a1.322 1.322 0 1 0 2.645 0V17.7h2.645a1.32 1.32 0 0 0 1.32-1.32V5.795a1.32 1.32 0 0 0-1.315-1.32H17.7V3.15a1.322 1.322 0 1 0-2.645 0v1.325H12.41V3.15a1.322 1.322 0 1 0-2.645 0v1.325h-2.65V3.15a1.32 1.32 0 0 0-1.32-1.325zM3.15 7.12h15.875v1.32a2.65 2.65 0 0 0-2.645 2.65 2.65 2.65 0 0 0 2.65 2.645v1.32H3.14z"/></svg>