<svg xmlns="http://www.w3.org/2000/svg" xmlns:svg="http://www.w3.org/2000/svg" id="svg13" width="22" height="22" version="1.1"><metadata id="metadata19"/><g id="g11" transform="matrix(5 0 0 5 .5 .5)"><filter id="a" color-interpolation-filters="sRGB"><feBlend id="feBlend2" in2="BackgroundImage" mode="darken"/></filter><g id="g9" filter="url(#a)" transform="translate(-144.072 104.726) scale(.26458)"><path id="path5" fill="none" d="M545-395.003h16v16h-16z"/><path id="path7" fill="#f5f5f5" d="M552.526-392.815c-2.071 0-3.835 1.268-4.594 3.063a3.981 3.981 0 0 0-3.406 3.937 4 4 0 0 0 4 4h1a352.04 352.04 0 0 1 6.166 0h1.334a3.5 3.5 0 0 0 3.5-3.5 3.49 3.49 0 0 0-3.094-3.469 5.011 5.011 0 0 0-4.906-4.031z"/></g></g></svg>