<svg xmlns="http://www.w3.org/2000/svg" xmlns:svg="http://www.w3.org/2000/svg" id="svg8" width="22" height="22" version="1.1"><metadata id="metadata14"/><g id="g6" fill="#f5f5f5" fill-opacity=".557"><path id="path2" fill="none" d="M.5.5h21.16v21.165H.5z"/><path id="path4" fill-opacity="1" d="M3.15.5A2.64 2.64 0 0 0 .5 3.15v15.87a2.647 2.647 0 1 0 5.295 0v-5.29h10.58v5.29a2.645 2.645 0 1 0 5.29 0V3.15A2.64 2.64 0 0 0 19.02.5zm1.985 2.65h1.32c.37 0 .665.29.665.655V5.79H9.1c.37 0 .665.3.665.665v1.32a.66.66 0 0 1-.665.66H7.12v1.985a.66.66 0 0 1-.665.665h-1.32a.66.66 0 0 1-.66-.665V8.435H2.49a.66.66 0 0 1-.665-.66v-1.32c0-.37.3-.665.665-.665h1.985V3.805a.65.65 0 0 1 .66-.655zm10.58 0h1.32c.37 0 .665.29.665.655V5.13a.66.66 0 0 1-.665.66h-1.32a.66.66 0 0 1-.66-.66V3.805a.66.66 0 0 1 .66-.66zm-2.65 2.64h1.325c.37 0 .665.3.665.665v1.32a.66.66 0 0 1-.665.66h-1.32a.66.66 0 0 1-.66-.66v-1.32a.66.66 0 0 1 .66-.665zm5.295 0h1.325c.365 0 .66.3.66.665v1.32a.66.66 0 0 1-.66.66H18.36a.66.66 0 0 1-.66-.66v-1.32a.66.66 0 0 1 .66-.665zm-2.645 2.65h1.32a.66.66 0 0 1 .665.66v1.32a.66.66 0 0 1-.665.665h-1.32a.66.66 0 0 1-.66-.665V9.1c0-.365.295-.665.66-.665z"/></g></svg>