<svg xmlns="http://www.w3.org/2000/svg" xmlns:svg="http://www.w3.org/2000/svg" id="svg10" width="22" height="22" version="1.1"><metadata id="metadata16"/><g id="g8" filter="url(#filter7554)" transform="translate(-63 -526.02) scale(1.3229)"><path style="marker:none" id="path2" fill="none" d="M48 398h16v16H48z" color="#bebebe" opacity=".515" overflow="visible"/><path id="path4" fill="#f5f5f5" d="M50 402c-.5 0-1 .5-1 1v4c0 .5.5 1 1 1h1v-2h10v2h1c.5 0 1-.5 1-1v-4c0-.5-.5-1-1-1zm2 1.006c.554 0 1 .446 1 1s-.446 1-1 1-1-.446-1-1 .446-1 1-1zM52 399v2h8v-2z"/><path id="path6" fill="#f5f5f5" d="M52 407v5h8v-5z"/></g></svg>