<svg xmlns="http://www.w3.org/2000/svg" xmlns:svg="http://www.w3.org/2000/svg" id="svg12" width="22" height="22" version="1.1"><metadata id="metadata18"/><path id="path2" fill="none" d="M.5.5h21.165v21.165H.5z"/><g id="g10" fill="#f5f5f5"><path id="path4" d="M.5 20.345v-2.65l10.585-10.58 10.58 10.58v2.65L19.02 19.02l-7.935-7.935-7.94 7.935z"/><path id="path6" d="M19.9 9.95a1.325 1.325 0 0 0-1.27.94 7.916 7.916 0 0 1-6.035 5.335 7.915 7.915 0 0 1-7.59-2.685 1.325 1.325 0 1 0-2.03 1.7 10.59 10.59 0 0 0 18.175-3.525 1.325 1.325 0 0 0-1.25-1.76z"/><path id="path8" d="M11.085 1.825a5.29 5.29 0 0 0-5.295 5.29 5.29 5.29 0 0 0 5.295 5.285 5.29 5.29 0 0 0 5.29-5.29 5.29 5.29 0 0 0-5.29-5.285zm0 2.645a2.65 2.65 0 0 1 2.645 2.645 2.65 2.65 0 0 1-2.65 2.645 2.65 2.65 0 0 1-2.64-2.65 2.65 2.65 0 0 1 2.645-2.64z"/></g></svg>