<svg xmlns="http://www.w3.org/2000/svg" xmlns:svg="http://www.w3.org/2000/svg" id="svg6" width="22" height="22" version="1.1"><metadata id="metadata12"/><path id="path2" fill="none" d="M.5.5h21.165v21.165H.5z"/><path id="path4" fill="#f5f5f5" d="M5.79 11.085a3.97 3.97 0 0 0 0 7.935 3.96 3.96 0 0 0 3.93-3.6 2.665 2.665 0 0 1 2.73 0 3.96 3.96 0 0 0 7.895-.37 3.97 3.97 0 0 0-3.97-3.965 3.95 3.95 0 0 0-3.8 2.975 3.875 3.875 0 0 0-1.49-.33 3.875 3.875 0 0 0-1.49.33 3.95 3.95 0 0 0-3.8-2.975zm0 1.65a2.315 2.315 0 1 1 0 4.63 2.315 2.315 0 0 1 0-4.63zm10.585 0a2.315 2.315 0 1 1 0 4.63 2.315 2.315 0 0 1 0-4.63zM5.79 1.825L4.8 5.79h12.565l-.99-3.965-5.29.66zm-1.32 5.29L.5 9.765h21.165L17.7 7.115z"/></svg>