<svg xmlns="http://www.w3.org/2000/svg" xmlns:svg="http://www.w3.org/2000/svg" id="svg6" width="22" height="22" version="1.1"><metadata id="metadata12"/><path id="path2" fill="none" d="M.5.5h21.165v21.165H.5z"/><path id="path4" fill="#f5f5f5" d="M10.72 1.835a9.26 9.26 0 1 0 .62 0zm.365 3.955c2.92 0 5.29 2.37 5.29 5.295v.66a1.985 1.985 0 0 1-3.5 1.275 2.63 2.63 0 0 1-4.435-1.935 2.65 2.65 0 1 1 5.29 0v.66a.66.66 0 0 0 1.32 0v-.66a3.97 3.97 0 1 0-3.965 3.965h3.305s.66 0 .66.665c-.04.66-.66.66-.66.66h-3.305a5.293 5.293 0 1 1 0-10.585zm0 3.97a1.325 1.325 0 1 0 0 2.65 1.325 1.325 0 0 0 0-2.65z"/></svg>