<svg xmlns="http://www.w3.org/2000/svg" xmlns:svg="http://www.w3.org/2000/svg" id="svg12" width="22" height="22" version="1.1"><metadata id="metadata18"/><path id="path2" fill="none" d="M.5.5h21.165v21.165H.5z"/><g id="g10" fill="#f5f5f5"><path id="path4" d="M3.15 5.79A2.64 2.64 0 0 0 .5 8.44v10.58c0 1.465 1.18 2.65 2.65 2.65h6.61v-1.325h1.325V19.02H9.76V17.7h1.325v-1.325H9.76V15.05h1.325l-7.94-3.965v-2.65l7.94 3.97 7.935-3.97v2.65l-7.935 3.965v1.325h1.32V17.7h-1.32v1.32h1.32v1.325h-1.32v1.32h7.935c1.465 0 2.65-1.18 2.65-2.645V8.435a2.64 2.64 0 0 0-2.65-2.645zm2.64 7.935l1.655.845-4.3 4.45v-2.65zm10.585 0l2.65 2.645v2.65l-4.3-4.45z"/><path id="path6" d="M3.15 3.15A2.64 2.64 0 0 0 .5 5.79v1.325c0-1.465 1.18-2.65 2.65-2.65h15.87a2.65 2.65 0 0 1 2.65 2.65V5.79a2.64 2.64 0 0 0-2.65-2.645z" opacity=".5"/><path id="path8" d="M3.15.5A2.64 2.64 0 0 0 .5 3.15v1.32C.5 3 1.68 1.82 3.15 1.82h15.87a2.65 2.65 0 0 1 2.65 2.65V3.145A2.64 2.64 0 0 0 19.015.5z" opacity=".5"/></g></svg>