<svg xmlns="http://www.w3.org/2000/svg" xmlns:svg="http://www.w3.org/2000/svg" id="svg10" width="22" height="22" version="1.1"><metadata id="metadata16"/><path id="path2" fill="none" d="M.5.5h21.165v21.165H.5z"/><g id="g8" fill="#f5f5f5"><path id="path4" d="M8.435 1.825v5.29H5.79l5.295 6.615 5.29-6.615h-2.65v-5.29z"/><path id="path6" d="M3.125 8.42a1.32 1.32 0 0 0-1.3 1.34v9.26c0 .73.59 1.325 1.32 1.325H19.02a1.325 1.325 0 0 0 1.325-1.325V9.76c0-1.75-2.65-1.75-2.65 0v5.29H4.475V9.76A1.325 1.325 0 0 0 3.13 8.42zm1.345 7.955H17.7V17.7H4.47z"/></g></svg>