<svg xmlns="http://www.w3.org/2000/svg" xmlns:svg="http://www.w3.org/2000/svg" id="svg10" width="22" height="22" version="1.1"><metadata id="metadata16"/><path id="path2" fill="none" d="M.5.5h21.165v21.165H.5z"/><g id="g8" fill="#f5f5f5"><path id="path4" d="M9.1 1.82a2 2 0 0 0-1.99 1.985V6.45c0 1.085.9 1.99 1.99 1.99h3.965a2 2 0 0 0 1.985-1.99V3.8a1.99 1.99 0 0 0-1.985-1.98zm0 1.33h3.965c.38 0 .665.275.665.65v2.65a.65.65 0 0 1-.665.665H9.1a.65.65 0 0 1-.66-.665V3.8c0-.375.285-.65.66-.65zM3.81 13.725a2 2 0 0 0-1.985 1.99v2.65a2 2 0 0 0 1.985 1.98h3.965a1.99 1.99 0 0 0 1.98-1.98v-2.65a2 2 0 0 0-1.98-1.99zm0 1.33h3.965a.65.65 0 0 1 .665.66v2.65c0 .375-.29.65-.665.65H3.81a.64.64 0 0 1-.665-.65v-2.65a.65.65 0 0 1 .665-.66zm10.585-1.33a2.01 2.01 0 0 0-1.99 1.99v2.65a2 2 0 0 0 1.99 1.98h3.965a1.99 1.99 0 0 0 1.98-1.98v-2.65a2 2 0 0 0-1.98-1.99zm0 1.33h3.965a.65.65 0 0 1 .665.66v2.65c0 .375-.285.65-.665.65h-3.965a.64.64 0 0 1-.665-.65v-2.65a.65.65 0 0 1 .665-.66zM1.825 9.76v2.65H20.34V9.76z"/><path id="path6" d="M9.755 7.775v3.315h2.65V7.775zm-5.28 3.315v3.3H7.11v-3.3zm10.575 0v3.3h2.65v-3.3z"/></g></svg>