<svg xmlns="http://www.w3.org/2000/svg" xmlns:svg="http://www.w3.org/2000/svg" id="svg6" width="22" height="22" version="1.1"><metadata id="metadata12"/><path id="path2" fill="none" d="M21.665.5H.5v21.165h21.165z"/><path id="path4" fill="#f5f5f5" d="M19.02 1.825c.735 0 1.325.59 1.325 1.325V5.8a1.32 1.32 0 0 1-1.325 1.32H3.15a1.32 1.32 0 0 1-1.32-1.325V3.15c0-.735.59-1.325 1.32-1.325zM17.7 3.15a1.325 1.325 0 1 0 0 2.65 1.325 1.325 0 1 0 0-2.65zm1.32 5.125c.735 0 1.325.59 1.325 1.325v2.81a1.32 1.32 0 0 1-1.325 1.325H3.15a1.32 1.32 0 0 1-1.32-1.325V9.6c0-.735.59-1.325 1.32-1.325zm-1.32 1.49a1.325 1.325 0 1 0 0 2.65 1.325 1.325 0 1 0 0-2.65zm1.32 5.29c.735 0 1.325.59 1.325 1.325v2.645a1.32 1.32 0 0 1-1.325 1.325H3.15a1.32 1.32 0 0 1-1.32-1.325v-2.65c0-.73.59-1.32 1.32-1.32zM17.7 16.38a1.325 1.325 0 0 0-1.325 1.32 1.325 1.325 0 0 0 1.325 1.325 1.325 1.325 0 0 0 1.32-1.325 1.325 1.325 0 0 0-1.32-1.32z"/></svg>