<svg xmlns="http://www.w3.org/2000/svg" xmlns:svg="http://www.w3.org/2000/svg" id="Layer_1" width="16" height="16" enable-background="new 0 0 32 32" version="1.1" viewBox="0 0 16 16" xml:space="preserve"><metadata id="metadata26"/><g style="display:inline" id="titlebutton-max-hover" transform="translate(-513,185.63782)"><g id="g4891" transform="translate(-781,-432.63782)" style="display:inline;opacity:1"><path style="display:inline;opacity:1;fill:gray;fill-opacity:1;stroke:none;stroke-width:0;stroke-linecap:butt;stroke-linejoin:miter;stroke-miterlimit:4;stroke-dasharray:none;stroke-dashoffset:0;stroke-opacity:1" id="path4068-7-5-9-6-7-2-5-78" d="m 1302,248 a 7,7 0 0 0 -7,7 7,7 0 0 0 7,7 7,7 0 0 0 7,-7 7,7 0 0 0 -7,-7 z m 0,1 a 6,6 0 0 1 6,6 6,6 0 0 1 -6,6 6,6 0 0 1 -6,-6 6,6 0 0 1 6,-6 z"/></g><rect id="rect17883-0" width="16" height="16" x="513" y="-185.638" style="display:inline;opacity:1;fill:none;fill-opacity:1;stroke:none;stroke-width:1;stroke-linecap:butt;stroke-linejoin:miter;stroke-miterlimit:4;stroke-dasharray:none;stroke-dashoffset:0;stroke-opacity:0"/></g></svg>