<svg xmlns="http://www.w3.org/2000/svg" xmlns:svg="http://www.w3.org/2000/svg" id="svg7539" width="50" height="20" version="1.1"><defs id="defs7541"><linearGradient id="linearGradient4695-1-4-3-5-0-6"><stop id="stop4697-9-9-7-0-1-5" offset="0" style="stop-color:#000;stop-opacity:1"/><stop id="stop4699-5-8-9-0-4-0" offset="1" style="stop-color:#000;stop-opacity:0"/></linearGradient><linearGradient id="linearGradient3768-6"><stop style="stop-color:#0f0f0f;stop-opacity:1" id="stop3770-0" offset="0"/><stop id="stop3778-6" offset=".078" style="stop-color:#171717;stop-opacity:1"/><stop style="stop-color:#171717;stop-opacity:1" id="stop3774-2" offset=".974"/><stop style="stop-color:#1b1b1b;stop-opacity:1" id="stop3776-2" offset="1"/></linearGradient><linearGradient id="linearGradient3969-0-4"><stop style="stop-color:#353537;stop-opacity:1" id="stop3971-2-6" offset="0"/><stop style="stop-color:#4d4f52;stop-opacity:1" id="stop3973-0-1" offset="1"/></linearGradient><linearGradient id="linearGradient3938"><stop id="stop3940" offset="0" style="stop-color:#fff;stop-opacity:0"/><stop id="stop3942" offset="1" style="stop-color:#fff;stop-opacity:.54901963"/></linearGradient><linearGradient id="linearGradient6523"><stop id="stop6525" offset="0" style="stop-color:#1a1a1a;stop-opacity:1"/><stop id="stop6527" offset="1" style="stop-color:#1a1a1a;stop-opacity:0"/></linearGradient><linearGradient id="linearGradient3938-6"><stop id="stop3940-4" offset="0" style="stop-color:#bebebe;stop-opacity:1"/><stop id="stop3942-8" offset="1" style="stop-color:#fff;stop-opacity:1"/></linearGradient></defs><metadata id="metadata7544"/><g id="layer1" transform="translate(-120,87.999997)"><g style="display:inline" id="switch-dark" transform="translate(270,214.63782)"><path id="path1585" d="m -140,-302.63782 c -5.54,0 -10,4.46 -10,10 0,5.54 4.46,10 10,10 h 29.99999 c 5.54001,0 10,-4.46 10,-10 0,-5.54 -4.45999,-10 -10,-10 z m 0,1 h 29.99999 c 4.986,0 9,4.014 9,9 0,4.986 -4.014,9 -9,9 H -140 c -4.986,0 -9,-4.014 -9,-9 0,-4.986 4.014,-9 9,-9 z" style="opacity:1;fill:gray;fill-opacity:1;stroke:none;stroke-width:.57977116;stroke-linecap:round;stroke-linejoin:miter;stroke-miterlimit:4;stroke-dasharray:none;stroke-opacity:1;paint-order:stroke fill markers"/><circle id="circle1587" cx="-140" cy="-292.638" r="7" style="opacity:.25;fill:#fff;fill-opacity:1;stroke:none;stroke-width:1.07692313;stroke-linecap:round;stroke-linejoin:miter;stroke-miterlimit:4;stroke-dasharray:none;stroke-opacity:1;paint-order:stroke fill markers"/><path id="path1589" d="m -140.00002,-299.63782 a 7,7 0 0 0 -7,7 7,7 0 0 0 7,7 7,7 0 0 0 7,-7 7,7 0 0 0 -7,-7 z m 0,1 a 6,6 0 0 1 6,6 6,6 0 0 1 -6,6 6,6 0 0 1 -6,-6 6,6 0 0 1 6,-6 z" style="opacity:1;fill:gray;fill-opacity:1;stroke:none;stroke-width:1.07692313;stroke-linecap:round;stroke-linejoin:miter;stroke-miterlimit:4;stroke-dasharray:none;stroke-opacity:1;paint-order:stroke fill markers"/></g></g></svg>