<svg xmlns="http://www.w3.org/2000/svg" xmlns:svg="http://www.w3.org/2000/svg" xmlns:xlink="http://www.w3.org/1999/xlink" id="svg28" width="32" height="32" version="1.1"><metadata id="metadata34"/><linearGradient id="a"><stop id="stop2" offset="0" stop-color="#0c6adc"/><stop id="stop4" offset="1" stop-color="#0eecef"/></linearGradient><linearGradient id="b" x1="-54.435" x2="-19.412" y1="14.268" y2="39.284" gradientUnits="userSpaceOnUse" xlink:href="#a"/><linearGradient id="c" x1="-54.435" x2="-14.409" y1="11.618" y2="44.287" gradientUnits="userSpaceOnUse" xlink:href="#a"/><linearGradient id="f" x1="-54.435" x2="-14.409" y1="11.618" y2="44.287" gradientTransform="matrix(.477 0 0 .47697 -30.639 27.022)" gradientUnits="userSpaceOnUse" xlink:href="#a"/><linearGradient id="e" x1="-54.435" x2="-14.409" y1="11.618" y2="44.287" gradientTransform="matrix(.477 0 0 .47697 -30.638 26.213)" gradientUnits="userSpaceOnUse" xlink:href="#a"/><linearGradient id="d" x1="-54.435" x2="-16.41" y1="19.271" y2="45.288" gradientTransform="matrix(.477 0 0 .47697 -30.638 26.213)" gradientUnits="userSpaceOnUse"><stop id="stop11" offset="0" stop-color="#0c6adc" stop-opacity=".2"/><stop id="stop13" offset="1" stop-color="#0eecef" stop-opacity=".2"/></linearGradient><g id="g24" fill="#dfffff" fill-opacity=".078" stroke="url(#b)" stroke-linecap="round" stroke-linejoin="round" stroke-width=".962" transform="matrix(1.35024 0 0 1.35193 80.504 -33.726)"><path id="path16" fill="none" stroke="#aaa" stroke-width=".74" d="M-39.996 32.713v-1.48h-9.628"/><g id="g22" stroke="url(#c)" stroke-width="1.036" clip-rule="evenodd" transform="translate(0 -2.74)"><path id="path18" fill="url(#d)" fill-opacity="1" fill-rule="evenodd" stroke="url(#e)" d="M-48.883 35.454l-2.963-2.959h-5.925l-.74.74v14.794l.74.74h19.997l.74-.74V36.194l-.74-.74z"/><path id="path20" fill="none" stroke="url(#f)" d="M-38.515 33.235v-3.699h-5.184l-1.481 1.48h-10.37"/></g></g><path id="path26" fill="#f5f5f5" d="M21.21 13.02c-.868-.031-1.683.806-2.216 1.181a8.919 8.919 0 0 0-2.26-.304 8.578 8.578 0 0 0-2.34.304c-.707-.332-1.408-1.2-2.202-1.162-.45 1.178-.164 2.046-.08 2.263-.527.595-.611 1.36-.611 2.294 0 3.273 1.693 4.005 3.534 4.222-.236.21-.378.589-.453 1.14-.474.22-1.385.813-2.126-.49 0 0-.118-.95-.952-1.013 0 0-1.807.059-1.054.59 0 0 1.039.104 1.417 1.093 0 0 .39 1.662 2.697 1.147 0 .19.05 1.832.05 1.832l4.361.025s.264-1.45.264-1.85c0-.797-.58-2.217-.878-2.48 1.848-.211 3.658-.937 3.658-4.216 0-.937-.062-1.696-.589-2.294.084-.217.37-1.085-.083-2.263 0 0-.047-.013-.137-.019z"/></svg>