<svg xmlns="http://www.w3.org/2000/svg" xmlns:svg="http://www.w3.org/2000/svg" xmlns:xlink="http://www.w3.org/1999/xlink" id="svg32" width="32" height="32" version="1.1"><metadata id="metadata38"/><linearGradient id="a"><stop id="stop2" offset="0" stop-color="#0c6adc"/><stop id="stop4" offset="1" stop-color="#0eecef"/></linearGradient><linearGradient id="b" x1="-54.435" x2="-19.412" y1="14.268" y2="39.284" gradientUnits="userSpaceOnUse" xlink:href="#a"/><linearGradient id="c" x1="-54.435" x2="-14.409" y1="11.618" y2="44.287" gradientUnits="userSpaceOnUse" xlink:href="#a"/><linearGradient id="f" x1="-54.435" x2="-14.409" y1="11.618" y2="44.287" gradientTransform="matrix(.477 0 0 .47697 -30.639 27.022)" gradientUnits="userSpaceOnUse" xlink:href="#a"/><linearGradient id="e" x1="-54.435" x2="-14.409" y1="11.618" y2="44.287" gradientTransform="matrix(.477 0 0 .47697 -30.638 26.213)" gradientUnits="userSpaceOnUse" xlink:href="#a"/><linearGradient id="d" x1="-54.435" x2="-16.41" y1="19.271" y2="45.288" gradientTransform="matrix(.477 0 0 .47697 -30.638 26.213)" gradientUnits="userSpaceOnUse"><stop id="stop11" offset="0" stop-color="#0c6adc" stop-opacity=".2"/><stop id="stop13" offset="1" stop-color="#0eecef" stop-opacity=".2"/></linearGradient><g id="g24" fill="#dfffff" fill-opacity=".078" stroke="url(#b)" stroke-linecap="round" stroke-linejoin="round" stroke-width=".962" transform="matrix(1.35024 0 0 1.35193 80.504 -33.726)"><path id="path16" fill="none" stroke="#aaa" stroke-width=".74" d="M-39.996 32.713v-1.48h-9.628"/><g id="g22" stroke="url(#c)" stroke-width="1.036" clip-rule="evenodd" transform="translate(0 -2.74)"><path id="path18" fill="url(#d)" fill-opacity="1" fill-rule="evenodd" stroke="url(#e)" d="M-48.883 35.454l-2.963-2.959h-5.925l-.74.74v14.794l.74.74h19.997l.74-.74V36.194l-.74-.74z"/><path id="path20" fill="none" stroke="url(#f)" d="M-38.515 33.235v-3.699h-5.184l-1.481 1.48h-10.37"/></g></g><g id="g30" fill="#f5f5f5" fill-opacity=".557"><path id="path26" fill="none" d="M9.61 13.02h13.12v13.122H9.61z"/><path id="path28" fill-opacity="1" d="M11.253 13.02a1.637 1.637 0 0 0-1.643 1.643v9.84a1.641 1.641 0 1 0 3.283 0v-3.28h6.56v3.28a1.64 1.64 0 1 0 3.28 0v-9.84a1.637 1.637 0 0 0-1.64-1.643zm1.23 1.643h.82c.229 0 .411.18.411.406v1.23h1.228c.23 0 .412.187.412.413v.818a.41.41 0 0 1-.412.41h-1.228v1.23a.41.41 0 0 1-.412.413h-.818a.41.41 0 0 1-.41-.413v-1.23h-1.23a.41.41 0 0 1-.412-.41v-.818c0-.23.186-.412.412-.412h1.23v-1.23a.403.403 0 0 1 .41-.407zm6.56 0h.819c.23 0 .412.18.412.406v.822a.41.41 0 0 1-.412.409h-.819a.41.41 0 0 1-.409-.41v-.82a.41.41 0 0 1 .41-.41zM17.4 16.3h.822c.23 0 .412.186.412.412v.818a.41.41 0 0 1-.412.41h-.819a.41.41 0 0 1-.409-.41v-.818a.41.41 0 0 1 .41-.412zm3.283 0h.822c.226 0 .409.186.409.412v.818a.41.41 0 0 1-.41.41h-.82a.41.41 0 0 1-.41-.41v-.818a.41.41 0 0 1 .41-.412zm-1.64 1.643h.819a.41.41 0 0 1 .412.409v.818a.41.41 0 0 1-.412.413h-.819a.41.41 0 0 1-.409-.413v-.818c0-.226.183-.412.41-.412z"/></g></svg>