<svg xmlns="http://www.w3.org/2000/svg" xmlns:svg="http://www.w3.org/2000/svg" xmlns:xlink="http://www.w3.org/1999/xlink" id="svg28" width="32" height="32" version="1.1"><metadata id="metadata34"/><linearGradient id="a"><stop id="stop2" offset="0" stop-color="#0c6adc"/><stop id="stop4" offset="1" stop-color="#0eecef"/></linearGradient><linearGradient id="b" x1="-54.435" x2="-19.412" y1="14.268" y2="39.284" gradientUnits="userSpaceOnUse" xlink:href="#a"/><linearGradient id="c" x1="-54.435" x2="-14.409" y1="11.618" y2="44.287" gradientUnits="userSpaceOnUse" xlink:href="#a"/><linearGradient id="f" x1="-54.435" x2="-14.409" y1="11.618" y2="44.287" gradientTransform="matrix(.477 0 0 .47697 -30.639 27.022)" gradientUnits="userSpaceOnUse" xlink:href="#a"/><linearGradient id="e" x1="-54.435" x2="-14.409" y1="11.618" y2="44.287" gradientTransform="matrix(.477 0 0 .47697 -30.638 26.213)" gradientUnits="userSpaceOnUse" xlink:href="#a"/><linearGradient id="d" x1="-54.435" x2="-16.41" y1="19.271" y2="45.288" gradientTransform="matrix(.477 0 0 .47697 -30.638 26.213)" gradientUnits="userSpaceOnUse"><stop id="stop11" offset="0" stop-color="#0c6adc" stop-opacity=".2"/><stop id="stop13" offset="1" stop-color="#0eecef" stop-opacity=".2"/></linearGradient><g id="g24" fill="#dfffff" fill-opacity=".078" stroke="url(#b)" stroke-linecap="round" stroke-linejoin="round" stroke-width=".962" transform="matrix(1.35024 0 0 1.35193 80.504 -33.726)"><path id="path16" fill="none" stroke="#aaa" stroke-width=".74" d="M-39.996 32.713v-1.48h-9.628"/><g id="g22" stroke="url(#c)" stroke-width="1.036" clip-rule="evenodd" transform="translate(0 -2.74)"><path id="path18" fill="url(#d)" fill-opacity="1" fill-rule="evenodd" stroke="url(#e)" d="M-48.883 35.454l-2.963-2.959h-5.925l-.74.74v14.794l.74.74h19.997l.74-.74V36.194l-.74-.74z"/><path id="path20" fill="none" stroke="url(#f)" d="M-38.515 33.235v-3.699h-5.184l-1.481 1.48h-10.37"/></g></g><path id="path26" fill="#f5f5f5" d="M14.533 13.87l-.822.818v.821h-3.28v7.79c0 1.231 1.231 1.231 1.231 1.231h9.021s1.23 0 1.23-1.23v-7.794h-3.282v-.815l-.818-.822zm0 .818h3.28v.821h-3.28z"/></svg>