<svg xmlns="http://www.w3.org/2000/svg" xmlns:svg="http://www.w3.org/2000/svg" xmlns:xlink="http://www.w3.org/1999/xlink" id="svg34" width="32" height="32" version="1.1"><metadata id="metadata40"/><linearGradient id="a"><stop id="stop2" offset="0" stop-color="#0c6adc"/><stop id="stop4" offset="1" stop-color="#0eecef"/></linearGradient><linearGradient id="b" x1="-54.435" x2="-19.412" y1="14.268" y2="39.284" gradientUnits="userSpaceOnUse" xlink:href="#a"/><linearGradient id="c" x1="-54.435" x2="-14.409" y1="11.618" y2="44.287" gradientUnits="userSpaceOnUse" xlink:href="#a"/><linearGradient id="f" x1="-54.435" x2="-14.409" y1="11.618" y2="44.287" gradientTransform="matrix(.477 0 0 .47697 -30.639 27.022)" gradientUnits="userSpaceOnUse" xlink:href="#a"/><linearGradient id="e" x1="-54.435" x2="-14.409" y1="11.618" y2="44.287" gradientTransform="matrix(.477 0 0 .47697 -30.638 26.213)" gradientUnits="userSpaceOnUse" xlink:href="#a"/><linearGradient id="d" x1="-54.435" x2="-16.41" y1="19.271" y2="45.288" gradientTransform="matrix(.477 0 0 .47697 -30.638 26.213)" gradientUnits="userSpaceOnUse"><stop id="stop11" offset="0" stop-color="#0c6adc" stop-opacity=".2"/><stop id="stop13" offset="1" stop-color="#0eecef" stop-opacity=".2"/></linearGradient><g id="g24" fill="#dfffff" fill-opacity=".078" stroke="url(#b)" stroke-linecap="round" stroke-linejoin="round" stroke-width=".962" transform="matrix(1.35024 0 0 1.35193 80.504 -33.726)"><path id="path16" fill="none" stroke="#aaa" stroke-width=".74" d="M-39.996 32.713v-1.48h-9.628"/><g id="g22" stroke="url(#c)" stroke-width="1.036" clip-rule="evenodd" transform="translate(0 -2.74)"><path id="path18" fill="url(#d)" fill-opacity="1" fill-rule="evenodd" stroke="url(#e)" d="M-48.883 35.454l-2.963-2.959h-5.925l-.74.74v14.794l.74.74h19.997l.74-.74V36.194l-.74-.74z"/><path id="path20" fill="none" stroke="url(#f)" d="M-38.515 33.235v-3.699h-5.184l-1.481 1.48h-10.37"/></g></g><path id="path26" fill="none" d="M9.61 13.02h13.122v13.122H9.61z"/><g id="g32" fill="#f5f5f5"><path id="path28" d="M14.942 13.838a1.24 1.24 0 0 0-1.234 1.231v1.64c0 .673.558 1.234 1.234 1.234H17.4a1.24 1.24 0 0 0 1.231-1.234v-1.643a1.234 1.234 0 0 0-1.23-1.228zm0 .825H17.4c.236 0 .413.17.413.403v1.643a.403.403 0 0 1-.413.412h-2.458a.403.403 0 0 1-.41-.412v-1.643c0-.232.178-.403.41-.403zm-3.28 6.557a1.24 1.24 0 0 0-1.23 1.233v1.643a1.24 1.24 0 0 0 1.23 1.228h2.458a1.234 1.234 0 0 0 1.228-1.228v-1.643a1.24 1.24 0 0 0-1.228-1.233zm0 .824h2.458a.403.403 0 0 1 .413.41v1.642c0 .233-.18.403-.412.403h-2.459a.397.397 0 0 1-.412-.403v-1.643a.403.403 0 0 1 .412-.409zm6.563-.824a1.246 1.246 0 0 0-1.234 1.233v1.643a1.24 1.24 0 0 0 1.234 1.228h2.458a1.234 1.234 0 0 0 1.228-1.228v-1.643a1.24 1.24 0 0 0-1.228-1.233zm0 .824h2.458a.403.403 0 0 1 .413.41v1.642a.397.397 0 0 1-.413.403h-2.458a.397.397 0 0 1-.412-.403v-1.643a.403.403 0 0 1 .412-.409zm-7.793-3.283v1.643H21.91v-1.643z"/><path id="path30" d="M15.348 17.53v2.056h1.643V17.53zm-3.273 2.056v2.046h1.633v-2.046zm6.556 0v2.046h1.643v-2.046z"/></g></svg>