<svg xmlns="http://www.w3.org/2000/svg" xmlns:svg="http://www.w3.org/2000/svg" xmlns:xlink="http://www.w3.org/1999/xlink" id="svg30" width="32" height="32" version="1.1"><metadata id="metadata36"/><linearGradient id="a"><stop id="stop2" offset="0" stop-color="#0c6adc"/><stop id="stop4" offset="1" stop-color="#0eecef"/></linearGradient><linearGradient id="b" x1="-54.435" x2="-19.412" y1="14.268" y2="39.284" gradientUnits="userSpaceOnUse" xlink:href="#a"/><linearGradient id="c" x1="-54.435" x2="-14.409" y1="11.618" y2="44.287" gradientUnits="userSpaceOnUse" xlink:href="#a"/><linearGradient id="f" x1="-54.435" x2="-14.409" y1="11.618" y2="44.287" gradientTransform="matrix(.477 0 0 .47697 -30.639 27.022)" gradientUnits="userSpaceOnUse" xlink:href="#a"/><linearGradient id="e" x1="-54.435" x2="-14.409" y1="11.618" y2="44.287" gradientTransform="matrix(.477 0 0 .47697 -30.638 26.213)" gradientUnits="userSpaceOnUse" xlink:href="#a"/><linearGradient id="d" x1="-54.435" x2="-16.41" y1="19.271" y2="45.288" gradientTransform="matrix(.477 0 0 .47697 -30.638 26.213)" gradientUnits="userSpaceOnUse"><stop id="stop11" offset="0" stop-color="#0c6adc" stop-opacity=".2"/><stop id="stop13" offset="1" stop-color="#0eecef" stop-opacity=".2"/></linearGradient><g id="g24" fill="#dfffff" fill-opacity=".078" stroke="url(#b)" stroke-linecap="round" stroke-linejoin="round" stroke-width=".962" transform="matrix(1.35024 0 0 1.35193 80.504 -33.726)"><path id="path16" fill="none" stroke="#aaa" stroke-width=".74" d="M-39.996 32.713v-1.48h-9.628"/><g id="g22" stroke="url(#c)" stroke-width="1.036" clip-rule="evenodd" transform="translate(0 -2.74)"><path id="path18" fill="url(#d)" fill-opacity="1" fill-rule="evenodd" stroke="url(#e)" d="M-48.883 35.454l-2.963-2.959h-5.925l-.74.74v14.794l.74.74h19.997l.74-.74V36.194l-.74-.74z"/><path id="path20" fill="none" stroke="url(#f)" d="M-38.515 33.235v-3.699h-5.184l-1.481 1.48h-10.37"/></g></g><path id="path26" fill="none" d="M22.732 13.02H9.61v13.122h13.122z"/><path id="path28" fill="#f5f5f5" d="M21.092 13.842c.456 0 .822.365.822.821v1.643a.818.818 0 0 1-.822.818h-9.839a.818.818 0 0 1-.818-.821v-1.64c0-.456.365-.822.818-.822zm-.818.821a.822.822 0 1 0 0 1.643.822.822 0 1 0 0-1.643zm.818 3.178c.456 0 .822.365.822.821v1.742a.818.818 0 0 1-.822.822h-9.839a.818.818 0 0 1-.818-.822v-1.742c0-.456.365-.821.818-.821zm-.818.923a.822.822 0 1 0 0 1.643.822.822 0 1 0 0-1.643zm.818 3.28a.82.82 0 0 1 .822.822v1.64a.818.818 0 0 1-.822.821h-9.839a.818.818 0 0 1-.818-.821v-1.643c0-.453.365-.819.818-.819zm-.818.822a.822.822 0 0 0-.822.818.822.822 0 0 0 .822.822.822.822 0 0 0 .818-.822.822.822 0 0 0-.818-.818z"/></svg>